<?xml version="1.0" encoding="utf-8"?><!-- Uploaded to: SVG Repo, www.svgrepo.com, Generator: SVG Repo Mixer Tools -->
<svg fill="#000000" width="800px" height="800px" viewBox="0 0 24 24" id="bill-euro" data-name="Flat Line" xmlns="http://www.w3.org/2000/svg" class="icon flat-line"><path id="secondary" d="M11,10a8,8,0,0,1,4.13-7H5A1,1,0,0,0,4,4V21l2.34-1,2.33,1L11,20l2.33,1,2.33-1L18,21V17.93A8,8,0,0,1,11,10Z" style="fill: rgb(44, 169, 188); stroke-width: 2;"></path><path id="primary" d="M20,7.77A3,3,0,0,0,18,7h0a3,3,0,0,0-3,3h0a3,3,0,0,0,3,3h0a3,3,0,0,0,2-.77" style="fill: none; stroke: rgb(0, 0, 0); stroke-linecap: round; stroke-linejoin: round; stroke-width: 2;"></path><path id="primary-2" data-name="primary" d="M14,10h3m-5,5H8m2-4H8" style="fill: none; stroke: rgb(0, 0, 0); stroke-linecap: round; stroke-linejoin: round; stroke-width: 2;"></path><path id="primary-3" data-name="primary" d="M18,18v3l-2.33-1-2.33,1L11,20,8.67,21,6.34,20,4,21V4A1,1,0,0,1,5,3H15" style="fill: none; stroke: rgb(0, 0, 0); stroke-linecap: round; stroke-linejoin: round; stroke-width: 2;"></path></svg>